<svg xmlns="http://www.w3.org/2000/svg" width="975" height="975" viewBox="0 0 975 975" version="1.1">
	<path d="M 447.500 3.448 C 393.748 8.242, 345.377 20.179, 296.807 40.636 L 286.114 45.139 289.668 52.820 C 291.623 57.044, 293.411 61.175, 293.642 62 C 293.945 63.083, 289.469 65.820, 277.556 71.838 C 268.478 76.423, 254.902 83.961, 247.387 88.588 C 239.872 93.214, 233.555 97, 233.348 97 C 233.142 97, 230.747 93.513, 228.027 89.250 C 224.167 83.204, 223.346 81.238, 224.290 80.307 C 224.955 79.651, 231.575 75.500, 239 71.083 C 246.425 66.666, 253.175 62.568, 254 61.978 C 257.755 59.289, 240.414 69.012, 231 74.874 C 153.277 123.266, 90.557 192.651, 50.551 274.500 C 24.355 328.093, 9.249 382.056, 2.820 445 C 0.893 463.869, 1.224 516.616, 3.394 536.500 C 10.009 597.098, 25.118 649.824, 50.963 702.500 C 92.755 787.679, 158.728 858.914, 240.500 907.155 C 253.314 914.715, 278.351 928.022, 279.624 927.951 C 280.106 927.924, 277.435 926.329, 273.689 924.406 L 266.878 920.911 270.309 914.705 C 272.196 911.292, 274.248 907.517, 274.870 906.315 C 275.992 904.147, 276.092 904.174, 288.628 910.099 C 301.328 916.102, 331.120 928.259, 336.259 929.536 C 337.777 929.913, 339.229 930.561, 339.486 930.977 C 340.009 931.823, 335.203 946.885, 333.862 948.601 C 333.002 949.703, 345.109 953.680, 367 959.487 C 388.120 965.090, 422.640 970.802, 448.500 972.972 C 463.999 974.273, 510.054 974.270, 525.500 972.967 C 582.722 968.141, 636.663 954.303, 687.453 931.423 L 699.924 925.805 695.888 917.777 C 693.668 913.361, 692.222 909.378, 692.676 908.925 C 693.129 908.472, 698.450 905.536, 704.500 902.401 C 710.550 899.265, 721.484 893.114, 728.798 888.731 C 736.111 884.348, 742.237 880.928, 742.411 881.131 C 742.585 881.334, 744.670 884.650, 747.044 888.500 C 749.418 892.350, 751.467 895.651, 751.599 895.835 C 752.415 896.982, 800 861.973, 800 860.226 C 800 859.949, 797.525 856.903, 794.500 853.457 C 791.475 850.012, 789.022 846.812, 789.049 846.346 C 789.075 845.881, 791.616 843.475, 794.694 841 C 797.773 838.525, 808.275 828.613, 818.032 818.974 L 835.772 801.447 842.332 807.287 L 848.892 813.126 852.696 808.918 C 859.944 800.902, 875.306 781.447, 883.429 770 C 911.924 729.839, 932.566 689.257, 948.089 642.878 C 954.263 624.435, 962.846 592.407, 964.569 581.389 L 965.211 577.277 957.087 576.014 C 952.619 575.319, 948.749 574.403, 948.488 573.980 C 948.226 573.557, 948.472 570.800, 949.035 567.855 C 951.010 557.524, 953.913 532.383, 954.504 520.500 C 954.832 513.900, 955.324 507.038, 955.596 505.250 L 956.091 502 964.545 502 L 973 502 973 483.464 L 973 464.928 964.219 465.591 L 955.438 466.254 954.179 450.311 C 953.090 436.522, 949.460 409.031, 947.457 399.407 L 946.813 396.315 954.296 395.035 C 958.411 394.331, 962.312 393.425, 962.965 393.022 C 963.846 392.477, 963.215 388.256, 960.520 376.653 C 942.179 297.692, 902.945 223.017, 847.619 161.763 C 838.414 151.572, 806.177 120, 804.976 120 C 804.631 120, 801.976 122.925, 799.075 126.500 C 796.175 130.075, 793.345 133, 792.787 133 C 792.228 133, 789.235 130.834, 786.136 128.186 C 777.494 120.805, 764.570 111.003, 753.302 103.283 C 743.937 96.867, 743.211 96.142, 744.419 94.398 C 745.142 93.354, 747.382 89.912, 749.398 86.750 L 753.062 81 746.281 76.629 C 734.603 69.103, 703.865 52, 702.018 52 C 701.611 52, 699.633 55.600, 697.621 60 C 695.610 64.400, 693.813 68, 693.627 68 C 693.442 68, 686.362 64.924, 677.895 61.164 C 669.428 57.404, 656.425 52.141, 649 49.469 C 641.575 46.797, 635.390 44.550, 635.255 44.477 C 635.121 44.404, 636.336 40.422, 637.957 35.629 L 640.902 26.913 638.201 25.881 C 632.176 23.577, 608.674 17.048, 596 14.156 C 578.765 10.223, 556.460 6.492, 538 4.454 C 518.101 2.256, 467.207 1.691, 447.500 3.448 M 268.750 53.560 C 261.738 57.110, 256 60.240, 256 60.515 C 256 60.962, 281.900 48.329, 282.917 47.386 C 284.495 45.922, 279.754 47.988, 268.750 53.560 M 163.500 126.876 C 156.350 133.368, 145.179 144.208, 138.676 150.965 L 126.852 163.252 130.176 166.714 C 132.004 168.618, 135.168 171.509, 137.207 173.138 L 140.914 176.100 157.707 159.284 C 166.943 150.035, 177.988 139.564, 182.250 136.014 C 186.512 132.465, 190 129.307, 190 128.998 C 190 127.734, 178.760 115.003, 177.674 115.036 C 177.028 115.056, 170.650 120.384, 163.500 126.876 M 469.500 202.681 C 409.539 206.525, 351.008 229.687, 305 267.777 C 294.553 276.426, 275.413 295.681, 266.427 306.582 C 209.015 376.232, 187.830 470.569, 209.990 557.903 C 238.488 670.216, 330.499 753.531, 445.500 771.156 C 464.034 773.996, 496.979 774.692, 516.165 772.647 C 569.997 766.911, 618.541 747.537, 662.210 714.360 C 675.065 704.593, 702.297 677.598, 712.002 665 C 741.549 626.647, 760.636 583.830, 768.922 537.312 C 775.126 502.483, 773.995 458.167, 766.039 424.344 C 758.995 394.393, 747.806 366.577, 732.716 341.500 C 677.415 249.599, 575.561 195.881, 469.500 202.681 M 10.631 400.708 C 9.659 403.990, 6.148 429.350, 5.122 440.500 C 3.106 462.398, 2.972 464.865, 3.776 465.362 C 4.225 465.639, 8.622 465.966, 13.547 466.087 L 22.500 466.308 22.736 462.404 C 23.804 444.765, 27.230 415.820, 29.544 404.895 C 30.085 402.337, 29.954 402.268, 22.298 401.081 C 18.009 400.416, 13.749 399.657, 12.831 399.394 C 11.810 399.102, 10.955 399.613, 10.631 400.708 M 337.395 411.705 C 329.050 426.167, 314.009 438.017, 294.929 445.163 L 286.019 448.500 286.010 466.698 L 286 484.896 289.250 483.850 C 304.131 479.064, 314.990 473.870, 325.798 466.370 C 329.262 463.967, 332.299 462, 332.548 462 C 332.797 462, 333 486.084, 333 515.519 L 333 569.038 355.250 568.769 L 377.500 568.500 377.500 487 L 377.500 405.500 359.395 405.228 L 341.289 404.956 337.395 411.705 M 461.405 407.429 C 438.559 412.609, 424.762 426.372, 418.994 449.737 C 411.917 478.402, 414.597 520.864, 424.773 541.311 C 428.990 549.783, 438.829 560.103, 446.675 564.285 C 455.417 568.944, 465.648 571, 480.095 571 C 495.579 571, 504.973 569.220, 514.764 564.430 C 528.251 557.833, 536.834 545.992, 541.520 527.519 C 548.946 498.244, 546.618 456.095, 536.423 435.253 C 530.568 423.284, 520.329 414.123, 507.379 409.265 C 501.191 406.944, 498.842 406.653, 484 406.366 C 472.516 406.144, 465.647 406.467, 461.405 407.429 M 613.500 407.427 C 590.270 412.721, 576.918 425.692, 571.063 448.654 C 564.984 472.491, 565.695 509.164, 572.666 531.398 C 578.963 551.482, 593.177 564.966, 612.697 569.374 C 622.038 571.484, 641.532 571.517, 651.792 569.440 C 683.770 562.967, 697.362 538.838, 697.387 488.500 C 697.406 450.050, 689.453 427.938, 671.166 415.601 C 660.258 408.241, 654.234 406.678, 635.500 406.344 C 624.605 406.150, 617.585 406.496, 613.500 407.427 M 473.500 436.412 C 467.253 439.188, 462.928 446.683, 461.039 458.006 C 458.054 475.892, 458.878 510.691, 462.602 524 C 466.567 538.173, 476.466 544.150, 487.599 539.095 C 496.120 535.225, 499.682 526.153, 501.268 504.291 C 502.094 492.897, 502.082 484.952, 501.221 473.240 C 499.976 456.303, 498.293 448.911, 494.310 442.892 C 489.876 436.193, 480.537 433.284, 473.500 436.412 M 624.500 436.995 C 614.005 442.225, 610.114 459.486, 611.319 495.464 C 611.985 515.340, 613.631 524.988, 617.475 531.548 C 624.862 544.152, 640.019 544.008, 647.219 531.265 C 651.642 523.436, 653.101 513.002, 653.130 489 C 653.164 460.145, 650.987 448.312, 644.276 440.884 C 638.913 434.947, 631.524 433.494, 624.500 436.995 M 8.148 506.741 L 2.797 507.112 3.457 516.306 C 5.029 538.189, 9.279 573.304, 10.538 574.818 C 10.684 574.993, 14.949 574.374, 20.016 573.443 L 29.230 571.750 28.627 567.625 C 26.228 551.205, 24.007 531.870, 23.501 523 C 23.171 517.225, 22.678 511.038, 22.405 509.250 C 21.858 505.663, 22.380 505.755, 8.148 506.741 M 172.058 844.013 C 168.654 847.844, 166.140 851.417, 166.471 851.953 C 168.963 855.986, 218.637 894, 221.415 894 C 222.630 894, 232.123 878.729, 231.349 878.020 C 230.882 877.593, 225.048 873.390, 218.385 868.679 C 211.722 863.969, 201.192 855.927, 194.985 850.808 C 188.778 845.688, 182.473 840.499, 180.974 839.274 L 178.248 837.049 172.058 844.013 M 288 932 C 288.825 932.533, 289.950 932.969, 290.500 932.969 C 291.050 932.969, 290.825 932.533, 290 932 C 289.175 931.467, 288.050 931.031, 287.500 931.031 C 286.950 931.031, 287.175 931.467, 288 932 M 296 935.500 C 297.375 936.286, 298.950 936.929, 299.500 936.929 C 300.050 936.929, 299.375 936.286, 298 935.500 C 296.625 934.714, 295.050 934.071, 294.500 934.071 C 293.950 934.071, 294.625 934.714, 296 935.500 M 302 938 C 302.825 938.533, 303.950 938.969, 304.500 938.969 C 305.050 938.969, 304.825 938.533, 304 938 C 303.175 937.467, 302.050 937.031, 301.500 937.031 C 300.950 937.031, 301.175 937.467, 302 938" stroke="none" fill="#000000" fill-rule="evenodd"/>
</svg>